<svg width="93" height="1106" viewBox="0 0 93 1106" fill="none" xmlns="http://www.w3.org/2000/svg">
<path d="M0.958594 84L38.7586 -5.72205e-06H54.1186L92.0386 84H75.7186L43.1986 8.27999H49.4386L17.0386 84H0.958594ZM18.3586 64.56L22.5586 52.32H67.9186L72.1186 64.56H18.3586ZM12.1355 230V146H51.4955C61.5755 146 69.2555 148 74.5355 152C79.8155 155.92 82.4555 161.2 82.4555 167.84C82.4555 172.32 81.4155 176.16 79.3355 179.36C77.2555 182.48 74.4555 184.92 70.9355 186.68C67.4955 188.36 63.7355 189.2 59.6555 189.2L61.8155 184.88C66.5355 184.88 70.7755 185.76 74.5355 187.52C78.2955 189.2 81.2555 191.68 83.4155 194.96C85.6555 198.24 86.7755 202.32 86.7755 207.2C86.7755 214.4 84.0155 220 78.4955 224C72.9755 228 64.7755 230 53.8955 230H12.1355ZM27.7355 217.76H52.9355C58.7755 217.76 63.2555 216.8 66.3755 214.88C69.4955 212.96 71.0555 209.88 71.0555 205.64C71.0555 201.48 69.4955 198.44 66.3755 196.52C63.2555 194.52 58.7755 193.52 52.9355 193.52H26.5355V181.4H49.8155C55.2555 181.4 59.4155 180.44 62.2955 178.52C65.2555 176.6 66.7355 173.72 66.7355 169.88C66.7355 165.96 65.2555 163.04 62.2955 161.12C59.4155 159.2 55.2555 158.24 49.8155 158.24H27.7355V217.76ZM46.6322 377.2C40.0722 377.2 34.0322 376.12 28.5122 373.96C22.9922 371.8 18.1922 368.8 14.1122 364.96C10.0322 361.04 6.87219 356.48 4.63219 351.28C2.39219 346 1.27219 340.24 1.27219 334C1.27219 327.76 2.39219 322.04 4.63219 316.84C6.87219 311.56 10.0322 307 14.1122 303.16C18.1922 299.24 22.9922 296.2 28.5122 294.04C34.0322 291.88 40.0322 290.8 46.5122 290.8C53.0722 290.8 59.0722 291.88 64.5122 294.04C70.0322 296.2 74.8322 299.24 78.9122 303.16C82.9922 307 86.1522 311.56 88.3922 316.84C90.6322 322.04 91.7522 327.76 91.7522 334C91.7522 340.24 90.6322 346 88.3922 351.28C86.1522 356.56 82.9922 361.12 78.9122 364.96C74.8322 368.8 70.0322 371.8 64.5122 373.96C59.0722 376.12 53.1122 377.2 46.6322 377.2ZM46.5122 363.52C50.7522 363.52 54.6722 362.8 58.2722 361.36C61.8722 359.92 64.9922 357.88 67.6322 355.24C70.2722 352.52 72.3122 349.4 73.7522 345.88C75.2722 342.28 76.0322 338.32 76.0322 334C76.0322 329.68 75.2722 325.76 73.7522 322.24C72.3122 318.64 70.2722 315.52 67.6322 312.88C64.9922 310.16 61.8722 308.08 58.2722 306.64C54.6722 305.2 50.7522 304.48 46.5122 304.48C42.2722 304.48 38.3522 305.2 34.7522 306.64C31.2322 308.08 28.1122 310.16 25.3922 312.88C22.7522 315.52 20.6722 318.64 19.1522 322.24C17.7122 325.76 16.9922 329.68 16.9922 334C16.9922 338.24 17.7122 342.16 19.1522 345.76C20.6722 349.36 22.7522 352.52 25.3922 355.24C28.0322 357.88 31.1522 359.92 34.7522 361.36C38.3522 362.8 42.2722 363.52 46.5122 363.52ZM46.5563 523.2C35.0363 523.2 25.9963 519.96 19.4363 513.48C12.9563 507 9.71625 497.64 9.71625 485.4V438H25.3163V484.8C25.3163 493.44 27.1563 499.72 30.8362 503.64C34.5963 507.56 39.8763 509.52 46.6763 509.52C53.4763 509.52 58.7163 507.56 62.3963 503.64C66.0763 499.72 67.9163 493.44 67.9163 484.8V438H83.2763V485.4C83.2763 497.64 79.9963 507 73.4363 513.48C66.9563 519.96 57.9963 523.2 46.5563 523.2ZM38.7263 668V597.2H10.8863V584H82.1663V597.2H54.3263V668H38.7263ZM0.475313 960V876H13.3153L50.0353 937.32H43.3153L79.4353 876H92.2753L92.3953 960H77.6353L77.5153 899.16H80.6353L49.9153 950.4H42.9553L11.7553 899.16H15.3553V960H0.475313ZM31.9847 1056.92H73.7447V1069.76H31.9847V1056.92ZM33.1847 1092.92H80.5847V1106H17.5847V1022H78.9047V1035.08H33.1847V1092.92Z" fill="white" fill-opacity="0.1"/>
</svg>
