<svg width="92" height="962" viewBox="0 0 92 962" fill="none" xmlns="http://www.w3.org/2000/svg">
<path d="M52.5663 87.2C46.1663 87.2 40.2063 86.16 34.6863 84.08C29.2463 81.92 24.4863 78.92 20.4063 75.08C16.4063 71.16 13.2863 66.56 11.0463 61.28C8.80625 56 7.68625 50.24 7.68625 44C7.68625 37.76 8.80625 32 11.0463 26.72C13.2863 21.44 16.4463 16.88 20.5263 13.04C24.6063 9.12 29.3663 6.12 34.8063 4.04C40.2463 1.88 46.2063 0.799995 52.6863 0.799995C59.5663 0.799995 65.8463 2 71.5263 4.4C77.2063 6.72 82.0063 10.2 85.9263 14.84L75.8463 24.32C72.8063 21.04 69.4063 18.6 65.6463 17C61.8863 15.32 57.8063 14.48 53.4063 14.48C49.0063 14.48 44.9663 15.2 41.2863 16.64C37.6863 18.08 34.5263 20.12 31.8063 22.76C29.1663 25.4 27.0863 28.52 25.5663 32.12C24.1263 35.72 23.4063 39.68 23.4063 44C23.4063 48.32 24.1263 52.28 25.5663 55.88C27.0863 59.48 29.1663 62.6 31.8063 65.24C34.5263 67.88 37.6863 69.92 41.2863 71.36C44.9663 72.8 49.0063 73.52 53.4063 73.52C57.8063 73.52 61.8863 72.72 65.6463 71.12C69.4063 69.44 72.8063 66.92 75.8463 63.56L85.9263 73.16C82.0063 77.72 77.2063 81.2 71.5263 83.6C65.8463 86 59.5263 87.2 52.5663 87.2ZM46.1322 233.2C39.5722 233.2 33.5322 232.12 28.0122 229.96C22.4922 227.8 17.6922 224.8 13.6122 220.96C9.53219 217.04 6.37219 212.48 4.13219 207.28C1.89219 202 0.772188 196.24 0.772188 190C0.772188 183.76 1.89219 178.04 4.13219 172.84C6.37219 167.56 9.53219 163 13.6122 159.16C17.6922 155.24 22.4922 152.2 28.0122 150.04C33.5322 147.88 39.5322 146.8 46.0122 146.8C52.5722 146.8 58.5722 147.88 64.0122 150.04C69.5322 152.2 74.3322 155.24 78.4122 159.16C82.4922 163 85.6522 167.56 87.8922 172.84C90.1322 178.04 91.2522 183.76 91.2522 190C91.2522 196.24 90.1322 202 87.8922 207.28C85.6522 212.56 82.4922 217.12 78.4122 220.96C74.3322 224.8 69.5322 227.8 64.0122 229.96C58.5722 232.12 52.6122 233.2 46.1322 233.2ZM46.0122 219.52C50.2522 219.52 54.1722 218.8 57.7722 217.36C61.3722 215.92 64.4922 213.88 67.1322 211.24C69.7722 208.52 71.8122 205.4 73.2522 201.88C74.7722 198.28 75.5322 194.32 75.5322 190C75.5322 185.68 74.7722 181.76 73.2522 178.24C71.8122 174.64 69.7722 171.52 67.1322 168.88C64.4922 166.16 61.3722 164.08 57.7722 162.64C54.1722 161.2 50.2522 160.48 46.0122 160.48C41.7722 160.48 37.8522 161.2 34.2522 162.64C30.7322 164.08 27.6122 166.16 24.8922 168.88C22.2522 171.52 20.1722 174.64 18.6522 178.24C17.2122 181.76 16.4922 185.68 16.4922 190C16.4922 194.24 17.2122 198.16 18.6522 201.76C20.1722 205.36 22.2522 208.52 24.8922 211.24C27.5322 213.88 30.6522 215.92 34.2522 217.36C37.8522 218.8 41.7722 219.52 46.0122 219.52ZM8.70578 378V294H21.5458L74.2258 358.68H67.8658V294H83.3458V378H70.5058L17.8258 313.32H24.1858V378H8.70578ZM38.2263 524V453.2H10.3863V440H81.6663V453.2H53.8263V524H38.2263ZM0.458594 670L38.2586 586H53.6186L91.5386 670H75.2186L42.6986 594.28H48.9386L16.5386 670H0.458594ZM17.8586 650.56L22.0586 638.32H67.4186L71.6186 650.56H17.8586ZM52.5663 817.2C46.1663 817.2 40.2063 816.16 34.6863 814.08C29.2463 811.92 24.4863 808.92 20.4063 805.08C16.4063 801.16 13.2863 796.56 11.0463 791.28C8.80625 786 7.68625 780.24 7.68625 774C7.68625 767.76 8.80625 762 11.0463 756.72C13.2863 751.44 16.4463 746.88 20.5263 743.04C24.6063 739.12 29.3663 736.12 34.8063 734.04C40.2463 731.88 46.2063 730.8 52.6863 730.8C59.5663 730.8 65.8463 732 71.5263 734.4C77.2063 736.72 82.0063 740.2 85.9263 744.84L75.8463 754.32C72.8063 751.04 69.4063 748.6 65.6463 747C61.8863 745.32 57.8063 744.48 53.4063 744.48C49.0063 744.48 44.9663 745.2 41.2863 746.64C37.6863 748.08 34.5263 750.12 31.8063 752.76C29.1663 755.4 27.0863 758.52 25.5663 762.12C24.1263 765.72 23.4063 769.68 23.4063 774C23.4063 778.32 24.1263 782.28 25.5663 785.88C27.0863 789.48 29.1663 792.6 31.8063 795.24C34.5263 797.88 37.6863 799.92 41.2863 801.36C44.9663 802.8 49.0063 803.52 53.4063 803.52C57.8063 803.52 61.8863 802.72 65.6463 801.12C69.4063 799.44 72.8063 796.92 75.8463 793.56L85.9263 803.16C82.0063 807.72 77.2063 811.2 71.5263 813.6C65.8463 816 59.5263 817.2 52.5663 817.2ZM38.2263 962V891.2H10.3863V878H81.6663V891.2H53.8263V962H38.2263Z" fill="white" fill-opacity="0.1"/>
</svg>
