<svg width="92" height="1252" viewBox="0 0 92 1252" fill="none" xmlns="http://www.w3.org/2000/svg">
<path d="M31.4847 34.92H73.2447V47.76H31.4847V34.92ZM32.6847 70.92H80.0847V84H17.0847V-5.72205e-06H78.4047V13.08H32.6847V70.92ZM7.70969 230V146H44.4297C53.5497 146 61.5497 147.76 68.4297 151.28C75.3097 154.8 80.6697 159.68 84.5097 165.92C88.3497 172.16 90.2697 179.52 90.2697 188C90.2697 196.4 88.3497 203.76 84.5097 210.08C80.6697 216.32 75.3097 221.2 68.4297 224.72C61.5497 228.24 53.5497 230 44.4297 230H7.70969ZM23.3097 216.8H43.7097C50.0297 216.8 55.4697 215.6 60.0297 213.2C64.6697 210.8 68.2297 207.44 70.7097 203.12C73.2697 198.8 74.5497 193.76 74.5497 188C74.5497 182.16 73.2697 177.12 70.7097 172.88C68.2297 168.56 64.6697 165.2 60.0297 162.8C55.4697 160.4 50.0297 159.2 43.7097 159.2H23.3097V216.8ZM46.0563 377.2C34.5363 377.2 25.4963 373.96 18.9363 367.48C12.4563 361 9.21625 351.64 9.21625 339.4V292H24.8163V338.8C24.8163 347.44 26.6563 353.72 30.3362 357.64C34.0963 361.56 39.3763 363.52 46.1763 363.52C52.9763 363.52 58.2163 361.56 61.8963 357.64C65.5763 353.72 67.4163 347.44 67.4163 338.8V292H82.7763V339.4C82.7763 351.64 79.4963 361 72.9363 367.48C66.4563 373.96 57.4963 377.2 46.0563 377.2ZM52.5663 523.2C46.1663 523.2 40.2063 522.16 34.6863 520.08C29.2463 517.92 24.4863 514.92 20.4063 511.08C16.4063 507.16 13.2863 502.56 11.0463 497.28C8.80625 492 7.68625 486.24 7.68625 480C7.68625 473.76 8.80625 468 11.0463 462.72C13.2863 457.44 16.4463 452.88 20.5263 449.04C24.6063 445.12 29.3663 442.12 34.8063 440.04C40.2463 437.88 46.2063 436.8 52.6863 436.8C59.5663 436.8 65.8463 438 71.5263 440.4C77.2063 442.72 82.0063 446.2 85.9263 450.84L75.8463 460.32C72.8063 457.04 69.4063 454.6 65.6463 453C61.8863 451.32 57.8063 450.48 53.4063 450.48C49.0063 450.48 44.9663 451.2 41.2863 452.64C37.6863 454.08 34.5263 456.12 31.8063 458.76C29.1663 461.4 27.0863 464.52 25.5663 468.12C24.1263 471.72 23.4063 475.68 23.4063 480C23.4063 484.32 24.1263 488.28 25.5663 491.88C27.0863 495.48 29.1663 498.6 31.8063 501.24C34.5263 503.88 37.6863 505.92 41.2863 507.36C44.9663 508.8 49.0063 509.52 53.4063 509.52C57.8063 509.52 61.8863 508.72 65.6463 507.12C69.4063 505.44 72.8063 502.92 75.8463 499.56L85.9263 509.16C82.0063 513.72 77.2063 517.2 71.5263 519.6C65.8463 522 59.5263 523.2 52.5663 523.2ZM0.458594 668L38.2586 584H53.6186L91.5386 668H75.2186L42.6986 592.28H48.9386L16.5386 668H0.458594ZM17.8586 648.56L22.0586 636.32H67.4186L71.6186 648.56H17.8586ZM38.2263 814V743.2H10.3863V730H81.6663V743.2H53.8263V814H38.2263ZM38.1198 960V876H53.7198V960H38.1198ZM46.1322 1107.2C39.5722 1107.2 33.5322 1106.12 28.0122 1103.96C22.4922 1101.8 17.6922 1098.8 13.6122 1094.96C9.53219 1091.04 6.37219 1086.48 4.13219 1081.28C1.89219 1076 0.772188 1070.24 0.772188 1064C0.772188 1057.76 1.89219 1052.04 4.13219 1046.84C6.37219 1041.56 9.53219 1037 13.6122 1033.16C17.6922 1029.24 22.4922 1026.2 28.0122 1024.04C33.5322 1021.88 39.5322 1020.8 46.0122 1020.8C52.5722 1020.8 58.5722 1021.88 64.0122 1024.04C69.5322 1026.2 74.3322 1029.24 78.4122 1033.16C82.4922 1037 85.6522 1041.56 87.8922 1046.84C90.1322 1052.04 91.2522 1057.76 91.2522 1064C91.2522 1070.24 90.1322 1076 87.8922 1081.28C85.6522 1086.56 82.4922 1091.12 78.4122 1094.96C74.3322 1098.8 69.5322 1101.8 64.0122 1103.96C58.5722 1106.12 52.6122 1107.2 46.1322 1107.2ZM46.0122 1093.52C50.2522 1093.52 54.1722 1092.8 57.7722 1091.36C61.3722 1089.92 64.4922 1087.88 67.1322 1085.24C69.7722 1082.52 71.8122 1079.4 73.2522 1075.88C74.7722 1072.28 75.5322 1068.32 75.5322 1064C75.5322 1059.68 74.7722 1055.76 73.2522 1052.24C71.8122 1048.64 69.7722 1045.52 67.1322 1042.88C64.4922 1040.16 61.3722 1038.08 57.7722 1036.64C54.1722 1035.2 50.2522 1034.48 46.0122 1034.48C41.7722 1034.48 37.8522 1035.2 34.2522 1036.64C30.7322 1038.08 27.6122 1040.16 24.8922 1042.88C22.2522 1045.52 20.1722 1048.64 18.6522 1052.24C17.2122 1055.76 16.4922 1059.68 16.4922 1064C16.4922 1068.24 17.2122 1072.16 18.6522 1075.76C20.1722 1079.36 22.2522 1082.52 24.8922 1085.24C27.5322 1087.88 30.6522 1089.92 34.2522 1091.36C37.8522 1092.8 41.7722 1093.52 46.0122 1093.52ZM8.70578 1252V1168H21.5458L74.2258 1232.68H67.8658V1168H83.3458V1252H70.5058L17.8258 1187.32H24.1858V1252H8.70578Z" fill="white" fill-opacity="0.1"/>
</svg>
