<svg width="79" height="818" viewBox="0 0 79 818" fill="none" xmlns="http://www.w3.org/2000/svg">
<path d="M33.5856 87.2C27.0256 87.2 20.7456 86.28 14.7456 84.44C8.74563 82.52 3.98563 80.08 0.465625 77.12L5.86563 65C9.22563 67.64 13.3856 69.84 18.3456 71.6C23.3056 73.36 28.3856 74.24 33.5856 74.24C37.9856 74.24 41.5456 73.76 44.2656 72.8C46.9856 71.84 48.9856 70.56 50.2656 68.96C51.5456 67.28 52.1856 65.4 52.1856 63.32C52.1856 60.76 51.2656 58.72 49.4256 57.2C47.5856 55.6 45.1856 54.36 42.2256 53.48C39.3456 52.52 36.1056 51.64 32.5056 50.84C28.9856 50.04 25.4256 49.12 21.8256 48.08C18.3056 46.96 15.0656 45.56 12.1056 43.88C9.22563 42.12 6.86563 39.8 5.02563 36.92C3.18563 34.04 2.26563 30.36 2.26563 25.88C2.26563 21.32 3.46563 17.16 5.86563 13.4C8.34563 9.55999 12.0656 6.51999 17.0256 4.27999C22.0656 1.95999 28.4256 0.799995 36.1056 0.799995C41.1456 0.799995 46.1456 1.44 51.1056 2.72C56.0656 4 60.3856 5.84 64.0656 8.24L59.1456 20.36C55.3856 18.12 51.5056 16.48 47.5056 15.44C43.5056 14.32 39.6656 13.76 35.9856 13.76C31.6656 13.76 28.1456 14.28 25.4256 15.32C22.7856 16.36 20.8256 17.72 19.5456 19.4C18.3456 21.08 17.7456 23 17.7456 25.16C17.7456 27.72 18.6256 29.8 20.3856 31.4C22.2256 32.92 24.5856 34.12 27.4656 35C30.4256 35.88 33.7056 36.76 37.3056 37.64C40.9056 38.44 44.4656 39.36 47.9856 40.4C51.5856 41.44 54.8256 42.8 57.7056 44.48C60.6656 46.16 63.0256 48.44 64.7856 51.32C66.6256 54.2 67.5456 57.84 67.5456 62.24C67.5456 66.72 66.3056 70.88 63.8256 74.72C61.4256 78.48 57.7056 81.52 52.6656 83.84C47.6256 86.08 41.2656 87.2 33.5856 87.2ZM15.4891 212.2L14.6491 193.72L58.6891 148H76.2091L39.6091 186.88L30.9691 196.36L15.4891 212.2ZM1.56906 232V148H17.1691V232H1.56906ZM60.1291 232L27.9691 193.72L38.2891 182.32L78.3691 232H60.1291ZM26.1198 378V294H41.7198V378H26.1198ZM9.36203 524V440H24.962V510.8H68.882V524H9.36203ZM9.36203 670V586H24.962V656.8H68.882V670H9.36203ZM33.5856 817.2C27.0256 817.2 20.7456 816.28 14.7456 814.44C8.74563 812.52 3.98563 810.08 0.465625 807.12L5.86563 795C9.22563 797.64 13.3856 799.84 18.3456 801.6C23.3056 803.36 28.3856 804.24 33.5856 804.24C37.9856 804.24 41.5456 803.76 44.2656 802.8C46.9856 801.84 48.9856 800.56 50.2656 798.96C51.5456 797.28 52.1856 795.4 52.1856 793.32C52.1856 790.76 51.2656 788.72 49.4256 787.2C47.5856 785.6 45.1856 784.36 42.2256 783.48C39.3456 782.52 36.1056 781.64 32.5056 780.84C28.9856 780.04 25.4256 779.12 21.8256 778.08C18.3056 776.96 15.0656 775.56 12.1056 773.88C9.22563 772.12 6.86563 769.8 5.02563 766.92C3.18563 764.04 2.26563 760.36 2.26563 755.88C2.26563 751.32 3.46563 747.16 5.86563 743.4C8.34563 739.56 12.0656 736.52 17.0256 734.28C22.0656 731.96 28.4256 730.8 36.1056 730.8C41.1456 730.8 46.1456 731.44 51.1056 732.72C56.0656 734 60.3856 735.84 64.0656 738.24L59.1456 750.36C55.3856 748.12 51.5056 746.48 47.5056 745.44C43.5056 744.32 39.6656 743.76 35.9856 743.76C31.6656 743.76 28.1456 744.28 25.4256 745.32C22.7856 746.36 20.8256 747.72 19.5456 749.4C18.3456 751.08 17.7456 753 17.7456 755.16C17.7456 757.72 18.6256 759.8 20.3856 761.4C22.2256 762.92 24.5856 764.12 27.4656 765C30.4256 765.88 33.7056 766.76 37.3056 767.64C40.9056 768.44 44.4656 769.36 47.9856 770.4C51.5856 771.44 54.8256 772.8 57.7056 774.48C60.6656 776.16 63.0256 778.44 64.7856 781.32C66.6256 784.2 67.5456 787.84 67.5456 792.24C67.5456 796.72 66.3056 800.88 63.8256 804.72C61.4256 808.48 57.7056 811.52 52.6656 813.84C47.6256 816.08 41.2656 817.2 33.5856 817.2Z" fill="white" fill-opacity="0.1"/>
</svg>
